<svg width="226" height="31" viewBox="0 0 226 31" fill="none" xmlns="http://www.w3.org/2000/svg">
<path d="M24.4766 7.92188C24.4766 9.11979 24.3008 10.1289 23.9492 10.9492C23.5977 11.7695 23.1289 12.4466 22.543 12.9805C21.957 13.5143 21.2865 13.931 20.5312 14.2305C19.776 14.5299 19.0013 14.7448 18.207 14.875C19.2096 15.2396 20.0234 15.7018 20.6484 16.2617C21.2865 16.8216 21.7812 17.4076 22.1328 18.0195C22.4974 18.6185 22.7448 19.2109 22.875 19.7969C23.0052 20.3698 23.0703 20.8516 23.0703 21.2422C23.0703 22.2188 22.9271 23.0716 22.6406 23.8008C22.3542 24.5299 21.9635 25.1549 21.4688 25.6758C20.987 26.1966 20.4206 26.6263 19.7695 26.9648C19.1185 27.3034 18.4219 27.5768 17.6797 27.7852C16.9505 27.9805 16.1953 28.1172 15.4141 28.1953C14.6458 28.2734 13.8971 28.3125 13.168 28.3125C12.9206 28.3125 12.6667 28.306 12.4062 28.293C12.1589 28.293 11.8464 28.2799 11.4688 28.2539C11.0911 28.2409 10.6159 28.2148 10.043 28.1758C9.48307 28.1367 8.76042 28.0846 7.875 28.0195C6.98958 27.9544 5.91536 27.8763 4.65234 27.7852C3.38932 27.681 1.87891 27.5638 0.121094 27.4336L4.84766 24.5234L6.23438 3.87891L1.11719 0.558594C3.52604 0.584635 5.63542 0.610677 7.44531 0.636719C9.26823 0.66276 10.8047 0.688802 12.0547 0.714844C13.513 0.740885 14.763 0.766927 15.8047 0.792969C16.8203 0.792969 17.8424 0.949219 18.8711 1.26172C19.9128 1.5612 20.8438 2.01042 21.6641 2.60938C22.4974 3.20833 23.1745 3.95703 23.6953 4.85547C24.2161 5.74089 24.4766 6.76302 24.4766 7.92188ZM19.3203 8.03906C19.3203 7.92188 19.3008 7.72005 19.2617 7.43359C19.2357 7.13411 19.1445 6.80208 18.9883 6.4375C18.8451 6.0599 18.6172 5.66927 18.3047 5.26562C17.9922 4.84896 17.556 4.47135 16.9961 4.13281C16.4362 3.79427 15.7266 3.51432 14.8672 3.29297C14.0208 3.05859 12.9857 2.9349 11.7617 2.92188C11.1107 2.92188 10.4727 2.96094 9.84766 3.03906V13.8398C10.1862 13.8659 10.5247 13.8789 10.8633 13.8789C11.2018 13.8789 11.5013 13.8789 11.7617 13.8789C13.0117 13.8789 14.0664 13.7552 14.9258 13.5078C15.7852 13.2604 16.4948 12.9414 17.0547 12.5508C17.6146 12.1602 18.0443 11.737 18.3438 11.2812C18.6562 10.8125 18.8841 10.3633 19.0273 9.93359C19.1706 9.49089 19.2552 9.10026 19.2812 8.76172C19.3073 8.42318 19.3203 8.18229 19.3203 8.03906ZM11.8789 15.9688C11.5924 15.9688 11.2669 15.9688 10.9023 15.9688C10.5378 15.9688 10.1862 15.9818 9.84766 16.0078V25.4023C10.4336 25.5065 10.974 25.5781 11.4688 25.6172C11.9635 25.6562 12.4583 25.6758 12.9531 25.6758C13.6172 25.6758 14.2747 25.6042 14.9258 25.4609C15.5898 25.3047 16.1823 25.0443 16.7031 24.6797C17.237 24.3021 17.6667 23.8008 17.9922 23.1758C18.3177 22.5508 18.4805 21.7695 18.4805 20.832C18.4805 20.3503 18.3698 19.8229 18.1484 19.25C17.9271 18.6771 17.5625 18.1497 17.0547 17.668C16.5469 17.1862 15.8698 16.7826 15.0234 16.457C14.1771 16.1315 13.1289 15.9688 11.8789 15.9688ZM43.6172 15.832C43.6172 16.5221 43.5781 17.2643 43.5 18.0586C43.4219 18.8529 43.3047 19.6602 43.1484 20.4805C43.0052 21.3008 42.8294 22.1081 42.6211 22.9023C42.4258 23.6836 42.2109 24.4062 41.9766 25.0703L46.1367 28L38.7734 27.6875L39.2227 25.2852C38.4414 26.2617 37.5365 27.0104 36.5078 27.5312C35.4922 28.0391 34.3138 28.3451 32.9727 28.4492C31.8789 28.5273 30.9219 28.4492 30.1016 28.2148C29.2943 27.9935 28.6172 27.6484 28.0703 27.1797C27.5365 26.6979 27.1393 26.112 26.8789 25.4219C26.6185 24.7188 26.4883 23.9375 26.4883 23.0781C26.4883 22.2839 26.6836 21.5156 27.0742 20.7734C27.4648 20.0182 28.0247 19.3542 28.7539 18.7812C29.4961 18.2083 30.401 17.7526 31.4688 17.4141C32.5365 17.0625 33.7474 16.8867 35.1016 16.8867C35.7266 16.8867 36.4427 16.9453 37.25 17.0625C38.0703 17.1797 38.8451 17.4271 39.5742 17.8047C39.5091 17.0104 39.3854 16.2031 39.2031 15.3828C39.0339 14.5495 38.7799 13.7943 38.4414 13.1172C38.1029 12.4401 37.6602 11.8932 37.1133 11.4766C36.5794 11.0469 35.9089 10.832 35.1016 10.832C34.4115 10.832 33.7409 10.9753 33.0898 11.2617C32.4388 11.5482 31.8268 11.9583 31.2539 12.4922C30.694 13.026 30.1862 13.6771 29.7305 14.4453C29.2747 15.2135 28.8906 16.0794 28.5781 17.043L26.9375 7.47266L29.418 11.2812C30.0299 10.526 30.6484 9.92708 31.2734 9.48438C31.8984 9.02865 32.5169 8.68359 33.1289 8.44922C33.7539 8.20182 34.3529 8.03906 34.9258 7.96094C35.5117 7.88281 36.0716 7.84375 36.6055 7.84375C37.6081 7.89583 38.5326 8.10417 39.3789 8.46875C40.2383 8.82031 40.9805 9.33464 41.6055 10.0117C42.2305 10.6758 42.7188 11.4961 43.0703 12.4727C43.4349 13.4492 43.6172 14.569 43.6172 15.832ZM39.5742 22.082C39.6003 21.7174 39.6198 21.3659 39.6328 21.0273C39.6458 20.6888 39.6523 20.3568 39.6523 20.0312V19.7969C39.1836 19.6146 38.7083 19.4779 38.2266 19.3867C37.7578 19.2826 37.3216 19.2109 36.918 19.1719C36.5143 19.1198 36.1693 19.0938 35.8828 19.0938C35.6094 19.0807 35.4271 19.0742 35.3359 19.0742C34.5938 19.1003 33.9492 19.237 33.4023 19.4844C32.8555 19.7318 32.3997 20.0443 32.0352 20.4219C31.6836 20.7865 31.4167 21.1966 31.2344 21.6523C31.0651 22.1081 30.9805 22.5573 30.9805 23C30.9805 24.0026 31.2214 24.7643 31.7031 25.2852C32.1979 25.793 32.9141 26.0469 33.8516 26.0469C34.4766 26.0469 35.069 25.9362 35.6289 25.7148C36.1888 25.4935 36.7096 25.2005 37.1914 24.8359C37.6862 24.4583 38.1289 24.0352 38.5195 23.5664C38.9232 23.0846 39.2747 22.5898 39.5742 22.082ZM65.8438 10.6367L61.8008 12.043L53.4805 19.9531C54.0013 20.5911 54.5026 21.138 54.9844 21.5938C55.4661 22.0495 55.9219 22.4401 56.3516 22.7656C56.7812 23.0911 57.1784 23.3516 57.543 23.5469C57.9206 23.7422 58.2656 23.8919 58.5781 23.9961C59.2943 24.2435 59.9453 24.3216 60.5312 24.2305C60.9479 24.2044 61.3971 24.0742 61.8789 23.8398C62.2956 23.6445 62.7708 23.332 63.3047 22.9023C63.8516 22.4727 64.431 21.8542 65.043 21.0469C64.8086 22.4922 64.4635 23.6966 64.0078 24.6602C63.5651 25.6107 63.0964 26.3724 62.6016 26.9453C62.1068 27.5052 61.6315 27.9023 61.1758 28.1367C60.7331 28.3711 60.3945 28.4883 60.1602 28.4883C59.4831 28.3841 58.7344 28.0781 57.9141 27.5703C57.5625 27.362 57.1719 27.0951 56.7422 26.7695C56.3255 26.444 55.8763 26.0534 55.3945 25.5977C54.9258 25.1419 54.4245 24.6081 53.8906 23.9961C53.3568 23.3711 52.8099 22.6549 52.25 21.8477L52.2891 25.5977L54.8867 27.7656H45.1211L48.1289 25.3242L49.5156 3.56641L45.1602 1.39844L52.0742 0.246094L52.2109 17.9219L57.6797 10.9297L55.4336 8.44922L65.8438 10.6367ZM70.6289 20.832C70.7982 21.5612 71.026 22.2773 71.3125 22.9805C71.599 23.6706 71.9505 24.2891 72.3672 24.8359C72.7839 25.3828 73.2656 25.8255 73.8125 26.1641C74.3594 26.5026 74.9779 26.6719 75.668 26.6719C76.5794 26.6719 77.3737 26.4831 78.0508 26.1055C78.7279 25.7279 79.2812 25.2526 79.7109 24.6797C80.1406 24.0938 80.4401 23.4557 80.6094 22.7656C80.7786 22.0625 80.8112 21.3919 80.707 20.7539C81.0716 20.8971 81.3711 21.0859 81.6055 21.3203C81.8529 21.5547 82.0417 21.8151 82.1719 22.1016C82.3151 22.375 82.4128 22.6615 82.4648 22.9609C82.5169 23.2474 82.543 23.5273 82.543 23.8008C82.543 24.4258 82.3607 25.0312 81.9961 25.6172C81.6315 26.1901 81.1172 26.7044 80.4531 27.1602C79.8021 27.6029 79.0273 27.9609 78.1289 28.2344C77.2305 28.5078 76.2474 28.6445 75.1797 28.6445C73.7474 28.6445 72.4648 28.3646 71.332 27.8047C70.2122 27.2448 69.2617 26.4896 68.4805 25.5391C67.6992 24.5755 67.1003 23.4492 66.6836 22.1602C66.2669 20.8711 66.0586 19.4974 66.0586 18.0391C66.0586 16.5547 66.2669 15.1875 66.6836 13.9375C67.1003 12.6745 67.7122 11.6003 68.5195 10.7148C69.3398 9.82943 70.3424 9.15885 71.5273 8.70312C72.7122 8.2474 74.0794 8.0651 75.6289 8.15625C76.6966 8.23438 77.6797 8.54036 78.5781 9.07422C79.4766 9.60807 80.2578 10.2982 80.9219 11.1445C81.599 11.9779 82.1393 12.9349 82.543 14.0156C82.9596 15.0964 83.2135 16.2227 83.3047 17.3945L70.6289 20.832ZM70.2578 17.6875C70.2578 17.8698 70.2578 18.0521 70.2578 18.2344C70.2578 18.4036 70.2708 18.5794 70.2969 18.7617L78.8711 15.6367C78.5846 14.6992 78.2591 13.8984 77.8945 13.2344C77.543 12.5573 77.1719 12.0039 76.7812 11.5742C76.3906 11.1445 75.9935 10.832 75.5898 10.6367C75.1992 10.4284 74.8216 10.3242 74.457 10.3242C73.9102 10.3242 73.4284 10.4284 73.0117 10.6367C72.5951 10.8451 72.2305 11.1315 71.918 11.4961C71.6185 11.8477 71.3581 12.2643 71.1367 12.7461C70.9284 13.2279 70.7591 13.7422 70.6289 14.2891C70.4987 14.8359 70.401 15.4023 70.3359 15.9883C70.2839 16.5612 70.2578 17.1276 70.2578 17.6875ZM101.039 7.27734C101.039 6.35286 101.195 5.53255 101.508 4.81641C101.833 4.08724 102.27 3.47526 102.816 2.98047C103.376 2.48568 104.021 2.11458 104.75 1.86719C105.479 1.60677 106.254 1.47656 107.074 1.47656C107.842 1.47656 108.513 1.58724 109.086 1.80859C109.659 2.02995 110.134 2.32943 110.512 2.70703C110.889 3.08464 111.169 3.53385 111.352 4.05469C111.534 4.57552 111.625 5.12891 111.625 5.71484C111.625 6.3138 111.534 6.93229 111.352 7.57031C111.182 8.19531 110.922 8.8138 110.57 9.42578C110.232 10.0378 109.815 10.6237 109.32 11.1836C108.826 11.7435 108.266 12.2578 107.641 12.7266C107.536 12.7917 107.439 12.8568 107.348 12.9219C107.27 12.987 107.191 13.0521 107.113 13.1172C107.699 14.4193 108.376 15.6758 109.145 16.8867C109.913 18.0846 110.688 19.1914 111.469 20.207C111.911 19.4388 112.23 18.6901 112.426 17.9609C112.621 17.2188 112.719 16.4961 112.719 15.793C112.719 15.0508 112.634 14.3932 112.465 13.8203C112.296 13.2344 112.113 12.7721 111.918 12.4336C111.931 12.4336 112.022 12.4792 112.191 12.5703C112.374 12.6484 112.589 12.7721 112.836 12.9414C113.096 13.1107 113.37 13.332 113.656 13.6055C113.956 13.8789 114.229 14.2044 114.477 14.582C114.724 14.9466 114.932 15.3698 115.102 15.8516C115.271 16.3333 115.355 16.8737 115.355 17.4727C115.329 18.2018 115.141 18.9961 114.789 19.8555C114.451 20.7148 113.956 21.5742 113.305 22.4336C113.591 22.7721 113.852 23.0716 114.086 23.332C114.32 23.5924 114.529 23.8138 114.711 23.9961C114.919 24.2174 115.108 24.4062 115.277 24.5625L119.281 23.8008L114.203 28.3906C113.891 28.1562 113.546 27.8763 113.168 27.5508C112.842 27.2773 112.458 26.9453 112.016 26.5547C111.586 26.151 111.124 25.7018 110.629 25.207C109.509 26.0664 108.227 26.776 106.781 27.3359C105.349 27.8828 103.78 28.1562 102.074 28.1562C100.876 28.1562 99.8477 28.013 98.9883 27.7266C98.1289 27.4401 97.4128 27.0365 96.8398 26.5156C96.2799 25.9818 95.8633 25.3438 95.5898 24.6016C95.3294 23.8594 95.1992 23.0326 95.1992 22.1211C95.1992 20.9102 95.4141 19.862 95.8438 18.9766C96.2865 18.0911 96.8529 17.3164 97.543 16.6523C98.2331 15.9883 99.0078 15.4089 99.8672 14.9141C100.74 14.4062 101.605 13.931 102.465 13.4883C102.048 12.4596 101.703 11.4115 101.43 10.3438C101.169 9.26302 101.039 8.24089 101.039 7.27734ZM104.398 17.3164C104.255 17.0951 104.112 16.8607 103.969 16.6133C103.839 16.3529 103.702 16.0924 103.559 15.832C102.452 16.7435 101.612 17.6159 101.039 18.4492C100.479 19.2695 100.199 20.1615 100.199 21.125C100.199 21.7109 100.303 22.2513 100.512 22.7461C100.72 23.2409 101.007 23.6641 101.371 24.0156C101.749 24.3672 102.185 24.6406 102.68 24.8359C103.188 25.0312 103.734 25.1289 104.32 25.1289C104.984 25.1289 105.688 24.9857 106.43 24.6992C107.172 24.4128 107.947 23.9375 108.754 23.2734C107.986 22.4141 107.224 21.4831 106.469 20.4805C105.714 19.4779 105.023 18.4232 104.398 17.3164ZM109.066 5.87109C109.066 5.6237 109.04 5.36328 108.988 5.08984C108.949 4.80339 108.871 4.54297 108.754 4.30859C108.637 4.07422 108.467 3.87891 108.246 3.72266C108.025 3.56641 107.738 3.48828 107.387 3.48828C107.022 3.48828 106.729 3.57943 106.508 3.76172C106.299 3.94401 106.137 4.19141 106.02 4.50391C105.915 4.81641 105.837 5.17448 105.785 5.57812C105.746 5.98177 105.72 6.40495 105.707 6.84766C105.668 7.55078 105.707 8.26693 105.824 8.99609C105.941 9.72526 106.117 10.4609 106.352 11.2031C107.25 10.4349 107.927 9.58203 108.383 8.64453C108.839 7.70703 109.066 6.78255 109.066 5.87109ZM152.055 1.4375L150.531 12.8828L148.285 4.52344L142.289 5.20703L143.09 24.7188L147.934 27.1992L132.328 28.6836L138.012 24.5625L139.008 5.40234L132.816 5.16797L130.414 12.2773L129.652 1.76953L152.055 1.4375ZM170.375 15.832C170.375 16.5221 170.336 17.2643 170.258 18.0586C170.18 18.8529 170.062 19.6602 169.906 20.4805C169.763 21.3008 169.587 22.1081 169.379 22.9023C169.184 23.6836 168.969 24.4062 168.734 25.0703L172.895 28L165.531 27.6875L165.98 25.2852C165.199 26.2617 164.294 27.0104 163.266 27.5312C162.25 28.0391 161.072 28.3451 159.73 28.4492C158.637 28.5273 157.68 28.4492 156.859 28.2148C156.052 27.9935 155.375 27.6484 154.828 27.1797C154.294 26.6979 153.897 26.112 153.637 25.4219C153.376 24.7188 153.246 23.9375 153.246 23.0781C153.246 22.2839 153.441 21.5156 153.832 20.7734C154.223 20.0182 154.783 19.3542 155.512 18.7812C156.254 18.2083 157.159 17.7526 158.227 17.4141C159.294 17.0625 160.505 16.8867 161.859 16.8867C162.484 16.8867 163.201 16.9453 164.008 17.0625C164.828 17.1797 165.603 17.4271 166.332 17.8047C166.267 17.0104 166.143 16.2031 165.961 15.3828C165.792 14.5495 165.538 13.7943 165.199 13.1172C164.861 12.4401 164.418 11.8932 163.871 11.4766C163.337 11.0469 162.667 10.832 161.859 10.832C161.169 10.832 160.499 10.9753 159.848 11.2617C159.197 11.5482 158.585 11.9583 158.012 12.4922C157.452 13.026 156.944 13.6771 156.488 14.4453C156.033 15.2135 155.648 16.0794 155.336 17.043L153.695 7.47266L156.176 11.2812C156.788 10.526 157.406 9.92708 158.031 9.48438C158.656 9.02865 159.275 8.68359 159.887 8.44922C160.512 8.20182 161.111 8.03906 161.684 7.96094C162.27 7.88281 162.829 7.84375 163.363 7.84375C164.366 7.89583 165.29 8.10417 166.137 8.46875C166.996 8.82031 167.738 9.33464 168.363 10.0117C168.988 10.6758 169.477 11.4961 169.828 12.4727C170.193 13.4492 170.375 14.569 170.375 15.832ZM166.332 22.082C166.358 21.7174 166.378 21.3659 166.391 21.0273C166.404 20.6888 166.41 20.3568 166.41 20.0312V19.7969C165.941 19.6146 165.466 19.4779 164.984 19.3867C164.516 19.2826 164.079 19.2109 163.676 19.1719C163.272 19.1198 162.927 19.0938 162.641 19.0938C162.367 19.0807 162.185 19.0742 162.094 19.0742C161.352 19.1003 160.707 19.237 160.16 19.4844C159.613 19.7318 159.158 20.0443 158.793 20.4219C158.441 20.7865 158.174 21.1966 157.992 21.6523C157.823 22.1081 157.738 22.5573 157.738 23C157.738 24.0026 157.979 24.7643 158.461 25.2852C158.956 25.793 159.672 26.0469 160.609 26.0469C161.234 26.0469 161.827 25.9362 162.387 25.7148C162.947 25.4935 163.467 25.2005 163.949 24.8359C164.444 24.4583 164.887 24.0352 165.277 23.5664C165.681 23.0846 166.033 22.5898 166.332 22.082ZM181.391 8.11719C181.885 8.11719 182.387 8.16276 182.895 8.25391C183.402 8.33203 183.897 8.45573 184.379 8.625C184.874 8.78125 185.336 8.97656 185.766 9.21094C186.208 9.43229 186.605 9.67969 186.957 9.95312L190.16 6.00781L188.715 15.7539C188.559 15.0768 188.285 14.4128 187.895 13.7617C187.504 13.0977 187.016 12.5052 186.43 11.9844C185.857 11.4635 185.193 11.0469 184.438 10.7344C183.682 10.4089 182.855 10.2461 181.957 10.2461C181.462 10.2461 180.987 10.3047 180.531 10.4219C180.076 10.526 179.672 10.7018 179.32 10.9492C178.982 11.1966 178.708 11.5091 178.5 11.8867C178.305 12.2643 178.207 12.7135 178.207 13.2344C178.207 13.8594 178.376 14.3672 178.715 14.7578C179.066 15.1484 179.522 15.4805 180.082 15.7539C180.642 16.0143 181.28 16.2422 181.996 16.4375C182.712 16.6198 183.448 16.8151 184.203 17.0234C184.958 17.2318 185.694 17.4792 186.41 17.7656C187.126 18.0391 187.764 18.3971 188.324 18.8398C188.884 19.2826 189.333 19.8359 189.672 20.5C190.023 21.151 190.199 21.9583 190.199 22.9219C190.199 24.0026 189.984 24.9271 189.555 25.6953C189.138 26.4505 188.598 27.0755 187.934 27.5703C187.27 28.0521 186.534 28.4036 185.727 28.625C184.919 28.8464 184.132 28.957 183.363 28.957C182.738 28.957 182.113 28.8919 181.488 28.7617C180.863 28.6315 180.258 28.4492 179.672 28.2148C179.086 27.9805 178.526 27.7005 177.992 27.375C177.471 27.0495 176.996 26.6979 176.566 26.3203L173.598 30.2852L174.516 20.5977C174.932 21.4831 175.434 22.3099 176.02 23.0781C176.605 23.8464 177.257 24.5169 177.973 25.0898C178.689 25.6497 179.457 26.0924 180.277 26.418C181.098 26.7305 181.951 26.8867 182.836 26.8867C183.865 26.8867 184.685 26.6719 185.297 26.2422C185.922 25.7995 186.234 25.1745 186.234 24.3672C186.234 23.8464 186.059 23.4167 185.707 23.0781C185.368 22.7266 184.913 22.4206 184.34 22.1602C183.78 21.8997 183.142 21.6654 182.426 21.457C181.71 21.2487 180.974 21.0208 180.219 20.7734C179.464 20.526 178.728 20.2396 178.012 19.9141C177.296 19.5755 176.651 19.1589 176.078 18.6641C175.518 18.1562 175.062 17.5443 174.711 16.8281C174.372 16.099 174.203 15.2201 174.203 14.1914C174.203 13.306 174.333 12.5378 174.594 11.8867C174.854 11.2357 175.193 10.6888 175.609 10.2461C176.039 9.79036 176.514 9.42578 177.035 9.15234C177.569 8.86589 178.103 8.65104 178.637 8.50781C179.171 8.35156 179.678 8.2474 180.16 8.19531C180.642 8.14323 181.052 8.11719 181.391 8.11719ZM193.754 19.4453C193.754 18.2214 193.878 17.0039 194.125 15.793C194.385 14.569 194.665 13.4492 194.965 12.4336L191.586 12.6484L201.117 2.23828C200.362 4.62109 199.75 6.76953 199.281 8.68359L206.879 9.32812L205.883 11.6719L198.52 12.1992C198.337 13.1497 198.194 13.9961 198.09 14.7383C197.999 15.4674 197.921 16.0859 197.855 16.5938C197.79 17.1927 197.745 17.7135 197.719 18.1562C197.719 19.4583 197.797 20.6302 197.953 21.6719C198.109 22.7135 198.35 23.6055 198.676 24.3477C199.014 25.0768 199.438 25.6432 199.945 26.0469C200.466 26.4375 201.085 26.6328 201.801 26.6328C202.465 26.6328 203.018 26.5026 203.461 26.2422C203.917 25.9688 204.281 25.6237 204.555 25.207C204.828 24.7773 205.023 24.3021 205.141 23.7812C205.258 23.2474 205.316 22.7201 205.316 22.1992C205.316 21.7174 205.277 21.2487 205.199 20.793C205.759 21.0794 206.182 21.5417 206.469 22.1797C206.768 22.8047 206.918 23.4883 206.918 24.2305C206.918 24.9987 206.788 25.6758 206.527 26.2617C206.28 26.8477 205.935 27.3424 205.492 27.7461C205.049 28.1367 204.529 28.4362 203.93 28.6445C203.331 28.8529 202.686 28.957 201.996 28.957C201.579 28.957 201.085 28.9115 200.512 28.8203C199.952 28.7292 199.366 28.5599 198.754 28.3125C198.142 28.0781 197.536 27.7396 196.938 27.2969C196.339 26.8542 195.805 26.2812 195.336 25.5781C194.867 24.875 194.483 24.0221 194.184 23.0195C193.897 22.0039 193.754 20.8125 193.754 19.4453ZM212.738 20.832C212.908 21.5612 213.135 22.2773 213.422 22.9805C213.708 23.6706 214.06 24.2891 214.477 24.8359C214.893 25.3828 215.375 25.8255 215.922 26.1641C216.469 26.5026 217.087 26.6719 217.777 26.6719C218.689 26.6719 219.483 26.4831 220.16 26.1055C220.837 25.7279 221.391 25.2526 221.82 24.6797C222.25 24.0938 222.549 23.4557 222.719 22.7656C222.888 22.0625 222.921 21.3919 222.816 20.7539C223.181 20.8971 223.48 21.0859 223.715 21.3203C223.962 21.5547 224.151 21.8151 224.281 22.1016C224.424 22.375 224.522 22.6615 224.574 22.9609C224.626 23.2474 224.652 23.5273 224.652 23.8008C224.652 24.4258 224.47 25.0312 224.105 25.6172C223.741 26.1901 223.227 26.7044 222.562 27.1602C221.911 27.6029 221.137 27.9609 220.238 28.2344C219.34 28.5078 218.357 28.6445 217.289 28.6445C215.857 28.6445 214.574 28.3646 213.441 27.8047C212.322 27.2448 211.371 26.4896 210.59 25.5391C209.809 24.5755 209.21 23.4492 208.793 22.1602C208.376 20.8711 208.168 19.4974 208.168 18.0391C208.168 16.5547 208.376 15.1875 208.793 13.9375C209.21 12.6745 209.822 11.6003 210.629 10.7148C211.449 9.82943 212.452 9.15885 213.637 8.70312C214.822 8.2474 216.189 8.0651 217.738 8.15625C218.806 8.23438 219.789 8.54036 220.688 9.07422C221.586 9.60807 222.367 10.2982 223.031 11.1445C223.708 11.9779 224.249 12.9349 224.652 14.0156C225.069 15.0964 225.323 16.2227 225.414 17.3945L212.738 20.832ZM212.367 17.6875C212.367 17.8698 212.367 18.0521 212.367 18.2344C212.367 18.4036 212.38 18.5794 212.406 18.7617L220.98 15.6367C220.694 14.6992 220.368 13.8984 220.004 13.2344C219.652 12.5573 219.281 12.0039 218.891 11.5742C218.5 11.1445 218.103 10.832 217.699 10.6367C217.309 10.4284 216.931 10.3242 216.566 10.3242C216.02 10.3242 215.538 10.4284 215.121 10.6367C214.704 10.8451 214.34 11.1315 214.027 11.4961C213.728 11.8477 213.467 12.2643 213.246 12.7461C213.038 13.2279 212.868 13.7422 212.738 14.2891C212.608 14.8359 212.51 15.4023 212.445 15.9883C212.393 16.5612 212.367 17.1276 212.367 17.6875Z" fill="white"/>
</svg>
